<mxfile host="app.diagrams.net" modified="2022-09-12T14:32:37.810Z" agent="5.0 (Macintosh; Intel Mac OS X 10_15_7) AppleWebKit/537.36 (KHTML, like Gecko) Chrome/104.0.0.0 Safari/537.36" etag="1u04I1-hY0kySsKC27FM" version="20.2.7" type="github">
  <diagram id="cB2_Wi9ztHBC_7jvgDyW" name="第 1 页">
    <mxGraphModel dx="1018" dy="657" grid="1" gridSize="10" guides="1" tooltips="1" connect="1" arrows="1" fold="1" page="1" pageScale="1" pageWidth="827" pageHeight="1169" math="0" shadow="0">
      <root>
        <mxCell id="0" />
        <mxCell id="1" parent="0" />
        <mxCell id="rzXQg3vO84eEyRsMpJyL-8" value="" style="edgeStyle=orthogonalEdgeStyle;rounded=0;orthogonalLoop=1;jettySize=auto;html=1;" edge="1" parent="1" source="rzXQg3vO84eEyRsMpJyL-2" target="rzXQg3vO84eEyRsMpJyL-5">
          <mxGeometry relative="1" as="geometry" />
        </mxCell>
        <mxCell id="rzXQg3vO84eEyRsMpJyL-13" value="" style="edgeStyle=orthogonalEdgeStyle;rounded=0;orthogonalLoop=1;jettySize=auto;html=1;" edge="1" parent="1" source="rzXQg3vO84eEyRsMpJyL-2" target="rzXQg3vO84eEyRsMpJyL-12">
          <mxGeometry relative="1" as="geometry" />
        </mxCell>
        <mxCell id="rzXQg3vO84eEyRsMpJyL-2" value="WebAPI" style="rounded=1;whiteSpace=wrap;html=1;sketch=1;fillColor=#dae8fc;strokeColor=#6c8ebf;" vertex="1" parent="1">
          <mxGeometry x="354" y="320" width="120" height="50" as="geometry" />
        </mxCell>
        <mxCell id="rzXQg3vO84eEyRsMpJyL-4" value="Body" style="rounded=1;whiteSpace=wrap;html=1;sketch=1;fillColor=#dae8fc;strokeColor=#6c8ebf;" vertex="1" parent="1">
          <mxGeometry x="204" y="190" width="120" height="60" as="geometry" />
        </mxCell>
        <mxCell id="rzXQg3vO84eEyRsMpJyL-5" value="Head" style="rounded=1;whiteSpace=wrap;html=1;sketch=1;fillColor=#dae8fc;strokeColor=#6c8ebf;" vertex="1" parent="1">
          <mxGeometry x="354" y="190" width="120" height="60" as="geometry" />
        </mxCell>
        <mxCell id="rzXQg3vO84eEyRsMpJyL-6" value="UrlParam" style="rounded=1;whiteSpace=wrap;html=1;sketch=1;fillColor=#dae8fc;strokeColor=#6c8ebf;" vertex="1" parent="1">
          <mxGeometry x="504" y="190" width="120" height="60" as="geometry" />
        </mxCell>
        <mxCell id="rzXQg3vO84eEyRsMpJyL-7" value="" style="endArrow=classic;html=1;rounded=0;" edge="1" parent="1" source="rzXQg3vO84eEyRsMpJyL-2" target="rzXQg3vO84eEyRsMpJyL-4">
          <mxGeometry width="50" height="50" relative="1" as="geometry">
            <mxPoint x="514" y="460" as="sourcePoint" />
            <mxPoint x="564" y="410" as="targetPoint" />
          </mxGeometry>
        </mxCell>
        <mxCell id="rzXQg3vO84eEyRsMpJyL-9" value="" style="endArrow=classic;html=1;rounded=0;exitX=1;exitY=0;exitDx=0;exitDy=0;entryX=0.5;entryY=1;entryDx=0;entryDy=0;" edge="1" parent="1" source="rzXQg3vO84eEyRsMpJyL-2" target="rzXQg3vO84eEyRsMpJyL-6">
          <mxGeometry width="50" height="50" relative="1" as="geometry">
            <mxPoint x="514" y="460" as="sourcePoint" />
            <mxPoint x="564" y="410" as="targetPoint" />
          </mxGeometry>
        </mxCell>
        <mxCell id="rzXQg3vO84eEyRsMpJyL-11" style="edgeStyle=orthogonalEdgeStyle;rounded=0;orthogonalLoop=1;jettySize=auto;html=1;" edge="1" parent="1" source="rzXQg3vO84eEyRsMpJyL-10" target="rzXQg3vO84eEyRsMpJyL-2">
          <mxGeometry relative="1" as="geometry" />
        </mxCell>
        <mxCell id="rzXQg3vO84eEyRsMpJyL-10" value="WebAPI-DynamicObj" style="rounded=1;whiteSpace=wrap;html=1;sketch=1;fillColor=#dae8fc;strokeColor=#6c8ebf;" vertex="1" parent="1">
          <mxGeometry x="120" y="320" width="120" height="50" as="geometry" />
        </mxCell>
        <mxCell id="rzXQg3vO84eEyRsMpJyL-12" value="HttpItem" style="rounded=1;whiteSpace=wrap;html=1;sketch=1;fillColor=#dae8fc;strokeColor=#6c8ebf;" vertex="1" parent="1">
          <mxGeometry x="590" y="320" width="120" height="50" as="geometry" />
        </mxCell>
      </root>
    </mxGraphModel>
  </diagram>
</mxfile>
